PSF_ID_stride1.mot
nRows=10
nColumns=38

name PSF_ID_stride1.mot
datacolumns 38
datarows 10
range 0.8800397000 0.9380846000
endheader
time	pelvis_tilt_moment	pelvis_list_moment	pelvis_rotation_moment	pelvis_tx_force	pelvis_ty_force	pelvis_tz_force	hip_flexion_r_moment	hip_adduction_r_moment	hip_rotation_r_moment	knee_angle_r_moment	ankle_angle_r_moment	subtalar_angle_r_moment	mtp_angle_r_moment	hip_flexion_l_moment	hip_adduction_l_moment	hip_rotation_l_moment	knee_angle_l_moment	ankle_angle_l_moment	subtalar_angle_l_moment	mtp_angle_l_moment	lumbar_extension_moment	lumbar_bending_moment	lumbar_rotation_moment	arm_flex_r_moment	arm_add_r_moment	arm_rot_r_moment	elbow_flex_r_moment	pro_sup_r_moment	wrist_flex_r_moment	wrist_dev_r_moment	arm_flex_l_moment	arm_add_l_moment	arm_rot_l_moment	elbow_flex_l_moment	pro_sup_l_moment	wrist_flex_l_moment	wrist_dev_l_moment
        0.8800397000	       -1.0336372574	      -11.9627372158	        5.6975245412	       63.7802357297	      -60.3449119307	      -22.3387811962	      -14.9050666360	      -55.9381921772	       29.0472589559	       -0.3026380612	     -197.8244690289	       46.7038036385	       -0.0253953323	       -6.1599977061	        4.4802941015	       -1.6644083250	        0.0600247115	        1.9805705241	       -0.1920666614	        0.1211071147	       25.6494311402	        9.7996726036	      -36.3382686812	       -0.5898885100	       -2.3954213599	       -3.3376437505	        4.5279271387	       -0.2002724527	       -0.2817330940	       -0.4546317098	        6.4122156239	        6.0327415061	        4.2644393021	        4.7656441398	        0.0310201252	        0.5412019590	       -0.2985775473	
        0.8862049000	        0.6405462299	      -22.7238613344	        0.9308824789	       57.3949748942	      -72.6123141905	      -10.5886586450	      -15.6423091131	      -50.5290475962	       25.4880836636	       -7.7454539154	     -182.2281794055	       42.3513610106	       -0.0333321753	       -8.7490655574	        2.1275567718	       -1.1048458439	       -0.4634494136	        2.0388690311	       -0.2546089687	        0.1212599474	       16.7041491010	        8.0783638894	      -38.7561402165	       -1.1304850757	       -2.7272146933	       -3.5839418850	        3.8337960335	       -0.1966578508	       -0.3244469097	       -0.3996189901	        6.4969547234	        5.8529762242	        4.3276328340	        4.1962090009	        0.0470071232	        0.5408197754	       -0.2422977845	
        0.8921835000	       -2.4958979914	      -28.2218370896	       -5.6976280902	       45.3677214087	      -78.6587147275	      -13.5022090752	      -10.5289202844	      -40.2252648838	       19.4365418190	      -11.4034562068	     -165.9303380532	       37.9782844444	       -0.0415306034	      -11.4789723358	       -0.1542172922	       -0.4584196582	       -1.1348256552	        2.1076302198	       -0.3300159898	        0.1230896518	        7.2418307402	        6.4092267509	      -39.7512920175	       -1.4744581381	       -2.9101007156	       -3.6916294124	        3.1754053254	       -0.1893868371	       -0.3513185583	       -0.3445171354	        6.5056744394	        5.5459192228	        4.2534901490	        3.6509180829	        0.0582074171	        0.5257205821	       -0.1916816594	
        0.8982920000	       -5.8118557791	      -27.6181948006	      -13.2318700119	       30.2585404879	      -75.8286761393	      -27.2833728220	       -0.1348334242	      -28.2418483560	       12.0655251570	      -12.3286468522	     -147.8118707407	       33.3429700053	       -0.0488064587	      -14.0422847235	       -1.8589996749	        0.1216627402	       -1.8570924358	        2.1955426381	       -0.4097799779	        0.1270315806	       -1.6177113730	        4.7640368027	      -39.4775315415	       -1.7089458146	       -2.9007913570	       -3.6400016795	        2.5365126769	       -0.1777474085	       -0.3613088291	       -0.2881310387	        6.3903948299	        5.0564298458	        4.0309343933	        3.1200357979	        0.0648640926	        0.4956814806	       -0.1462641448	
        0.9061348000	       -2.9760331267	      -22.7420806167	      -18.7031174877	       11.2834600321	      -58.0880483459	      -41.0898912554	       12.8389899046	      -18.2847413874	        6.2691056958	      -13.2600532642	     -122.6849246086	       27.4531047015	       -0.0523763319	      -16.7335326724	       -2.3525364905	        0.5480254287	       -2.7175736357	        2.3291111552	       -0.4963316872	        0.1348703780	       -8.8906424272	        2.8007318704	      -37.5001255948	       -2.0092430108	       -2.5167409098	       -3.2942504952	        1.7833419675	       -0.1559415834	       -0.3450423101	       -0.2171467388	        5.9409861751	        4.0976320178	        3.5247732578	        2.4967718486	        0.0662754601	        0.4373314914	       -0.0993671293	
        0.9121527000	        4.9543116865	      -18.3532115918	      -17.1437011090	       -2.2956098662	      -39.4919809776	      -37.5951383083	       17.9383273241	      -16.6104522937	        7.0276187491	      -16.2019813122	     -103.9668928830	       23.1399353600	       -0.0469699732	      -18.2351547361	       -1.2565976372	        0.6124260809	       -3.2728095188	        2.4418238503	       -0.5415099716	        0.1422217042	      -10.0377702447	        1.5825064030	      -34.9640039757	       -2.3489797614	       -1.9253782575	       -2.8113795039	        1.2507032920	       -0.1338200726	       -0.3104853541	       -0.1634819201	        5.2980077058	        3.0957011561	        2.9820489102	        2.0590944319	        0.0625811543	        0.3795528399	       -0.0715037990	
        0.9181064000	       13.5022745182	      -10.8700279620	      -12.8968014333	      -15.7568343504	      -25.5155334427	      -23.4491815884	       20.5576831748	      -16.6105961212	        9.8222560903	      -20.2597274377	      -87.3604952167	       19.1075792873	       -0.0317261442	      -19.3431115350	        0.9363347902	        0.5179683546	       -3.7296552577	        2.5476784660	       -0.5637800773	        0.1491625881	       -7.6076454918	        0.8963326016	      -31.7275719151	       -2.8070991782	       -1.1406472579	       -2.1793836902	        0.7410988947	       -0.1077435543	       -0.2607268852	       -0.1098034253	        4.4028837225	        1.9228310364	        2.3432258262	        1.6392127290	        0.0560698094	        0.3136026027	       -0.0483544774	
        0.9240978000	       18.3624194229	        3.5899520942	      -10.1788658536	      -29.0875381620	      -23.4622963352	       -6.4841124600	       25.3016401721	      -13.5879652536	       10.4379315034	      -22.8413696436	      -72.2300641064	       15.6818497193	       -0.0047895682	      -20.2692587701	        3.9617446357	        0.3398639474	       -4.1624824013	        2.6283620571	       -0.5609899067	        0.1539937531	       -2.9118929846	        0.9785257560	      -27.8473772023	       -3.3508873853	       -0.2518060162	       -1.4482362177	        0.2198217292	       -0.0782922434	       -0.2007237198	       -0.0538056656	        3.2954642679	        0.6526619561	        1.6413238741	        1.2009003102	        0.0481904762	        0.2411740803	       -0.0260127975	
        0.9322649000	       17.3112927845	       31.0655187595	      -11.6180792627	      -42.6888430547	      -47.9227253630	       11.8002651283	       36.5697142797	       -3.0036158188	        5.6200979213	      -22.1181767311	      -52.8321296744	       12.7073627388	        0.0504340849	      -21.9153708982	        8.8626182716	        0.0419880253	       -5.1351847279	        2.6522671440	       -0.5114840115	        0.1538394859	        3.7325269192	        2.4648673421	      -21.8041198480	       -4.0825376812	        0.9019184326	       -0.4342209621	       -0.5339004964	       -0.0358386928	       -0.1155354355	        0.0266676783	        1.6230531677	       -1.0126306825	        0.6840061494	        0.5380692997	        0.0380691189	        0.1390151099	        0.0087293418	
        0.9380846000	       14.1461227513	       43.5389795679	      -13.3174986172	      -46.2864364256	      -82.5232569502	       24.9915548474	       39.9541120309	        4.7099254285	        1.8774745099	      -21.9264232051	      -40.3954006843	       11.1419673672	        0.0994967912	      -23.6480673652	       12.5209638234	       -0.1908989371	       -6.5201560677	        2.5960874198	       -0.4445021783	        0.1479256355	        6.4219995049	        4.1989307922	      -17.2491282455	       -4.4876317421	        1.5524253223	        0.2080455483	       -1.0900402856	       -0.0066169157	       -0.0608215101	        0.0851064531	        0.4613175567	       -2.0123230705	        0.0687449822	        0.0222407170	        0.0326211636	        0.0692311733	        0.0382627394	
